{
	"asset":{
		"generator":"Khronos glTF Blender I/O v4.2.69",
		"version":"2.0"
	},
	"scene":0,
	"scenes":[
		{
			"name":"Scene",
			"nodes":[
				0
			]
		}
	],
	"nodes":[
		{
			"mesh":0,
			"name":"Cube",
			"rotation":[
				0,
				0,
				-0.7071068286895752,
				0.7071068286895752
			],
			"scale":[
				1.6094850301742554,
				1.702685832977295,
				1.0008329153060913
			],
			"translation":[
				-2.495004892349243,
				0,
				0
			]
		}
	],
	"materials":[
		{
			"doubleSided":true,
			"name":"front",
			"pbrMetallicRoughness":{
				"baseColorTexture":{
					"index":0
				},
				"metallicFactor":0.5,
				"roughnessFactor":0.5
			}
		},
		{
			"doubleSided":true,
			"name":"other",
			"pbrMetallicRoughness":{
				"baseColorFactor":[
					0.800000011920929,
					0.800000011920929,
					0.800000011920929,
					1
				],
				"metallicFactor":0,
				"roughnessFactor":0.5
			}
		},
		{
			"doubleSided":true,
			"name":"back",
			"pbrMetallicRoughness":{
				"baseColorFactor":[
					0.9871304035186768,
					0.9743425846099854,
					1,
					1
				],
				"metallicFactor":0.550000011920929
			}
		}
	],
	"meshes":[
		{
			"name":"Cube",
			"primitives":[
				{
					"attributes":{
						"POSITION":0,
						"NORMAL":1,
						"TEXCOORD_0":2
					},
					"indices":3,
					"material":0
				},
				{
					"attributes":{
						"POSITION":4,
						"NORMAL":5,
						"TEXCOORD_0":6
					},
					"indices":7,
					"material":1
				},
				{
					"attributes":{
						"POSITION":8,
						"NORMAL":9,
						"TEXCOORD_0":10
					},
					"indices":11,
					"material":2
				}
			]
		}
	],
	"textures":[
		{
			"sampler":0,
			"source":0
		}
	],
	"images":[
		{
			"mimeType":"image/png",
			"name":"card",
			"uri":"card.png"
		}
	],
	"accessors":[
		{
			"bufferView":0,
			"componentType":5126,
			"count":68,
			"max":[
				1,
				2.914804458618164,
				-0.019982121884822845
			],
			"min":[
				-1,
				-0.015865325927734375,
				-0.019982121884822845
			],
			"type":"VEC3"
		},
		{
			"bufferView":1,
			"componentType":5126,
			"count":68,
			"type":"VEC3"
		},
		{
			"bufferView":2,
			"componentType":5126,
			"count":68,
			"type":"VEC2"
		},
		{
			"bufferView":3,
			"componentType":5123,
			"count":198,
			"type":"SCALAR"
		},
		{
			"bufferView":4,
			"componentType":5126,
			"count":272,
			"max":[
				1,
				2.914804458618164,
				0.004370401613414288
			],
			"min":[
				-1,
				-0.015865325927734375,
				-0.019982121884822845
			],
			"type":"VEC3"
		},
		{
			"bufferView":5,
			"componentType":5126,
			"count":272,
			"type":"VEC3"
		},
		{
			"bufferView":6,
			"componentType":5126,
			"count":272,
			"type":"VEC2"
		},
		{
			"bufferView":7,
			"componentType":5123,
			"count":408,
			"type":"SCALAR"
		},
		{
			"bufferView":8,
			"componentType":5126,
			"count":68,
			"max":[
				1,
				2.914804458618164,
				0.004370401613414288
			],
			"min":[
				-1,
				-0.015865325927734375,
				0.004370401613414288
			],
			"type":"VEC3"
		},
		{
			"bufferView":9,
			"componentType":5126,
			"count":68,
			"type":"VEC3"
		},
		{
			"bufferView":10,
			"componentType":5126,
			"count":68,
			"type":"VEC2"
		},
		{
			"bufferView":11,
			"componentType":5123,
			"count":198,
			"type":"SCALAR"
		}
	],
	"bufferViews":[
		{
			"buffer":0,
			"byteLength":816,
			"byteOffset":0,
			"target":34962
		},
		{
			"buffer":0,
			"byteLength":816,
			"byteOffset":816,
			"target":34962
		},
		{
			"buffer":0,
			"byteLength":544,
			"byteOffset":1632,
			"target":34962
		},
		{
			"buffer":0,
			"byteLength":396,
			"byteOffset":2176,
			"target":34963
		},
		{
			"buffer":0,
			"byteLength":3264,
			"byteOffset":2572,
			"target":34962
		},
		{
			"buffer":0,
			"byteLength":3264,
			"byteOffset":5836,
			"target":34962
		},
		{
			"buffer":0,
			"byteLength":2176,
			"byteOffset":9100,
			"target":34962
		},
		{
			"buffer":0,
			"byteLength":816,
			"byteOffset":11276,
			"target":34963
		},
		{
			"buffer":0,
			"byteLength":816,
			"byteOffset":12092,
			"target":34962
		},
		{
			"buffer":0,
			"byteLength":816,
			"byteOffset":12908,
			"target":34962
		},
		{
			"buffer":0,
			"byteLength":544,
			"byteOffset":13724,
			"target":34962
		},
		{
			"buffer":0,
			"byteLength":396,
			"byteOffset":14268,
			"target":34963
		}
	],
	"samplers":[
		{
			"magFilter":9729,
			"minFilter":9987,
			"wrapS":33071,
			"wrapT":33071
		}
	],
	"buffers":[
		{
			"byteLength":14664,
			"uri":"card.1.bin"
		}
	]
}
